<?xml version="1.0" encoding="UTF-8"?>
<svg class=-"icon" xmlns="http://www.w3.org/2000/svg" viewBox="0 0 41.63 31.22">
  <g>
    <g>
      <path class="cls-1" d="M34.19,2.97h-1.74c-.61-1.73-2.27-2.97-4.21-2.97H13.38c-1.94,0-3.59,1.24-4.21,2.97h-1.74C3.33,2.97,0,6.31,0,10.41V26.76c0,2.46,2,4.46,4.46,4.46H37.17c2.46,0,4.46-2,4.46-4.46V10.41c0-4.1-3.33-7.43-7.43-7.43Zm-13.38,3.72c5.33,0,9.66,4.34,9.66,9.66s-4.34,9.66-9.66,9.66-9.66-4.34-9.66-9.66S15.49,6.69,20.81,6.69Z"/>
      <path class="cls-1" d="M27.5,16.35c0,3.69-3,6.69-6.69,6.69s-6.69-3-6.69-6.69,3-6.69,6.69-6.69,6.69,3,6.69,6.69Z"/>
    </g>
  </g>
</svg>